<svg xmlns="http://www.w3.org/2000/svg" width="44.105" height="44.193" viewBox="0 0 44.105 44.193">
  <g id="Group_86" data-name="Group 86" transform="translate(-309.518 -192.75)">
    <g id="Group_85" data-name="Group 85" transform="translate(309.518 192.75)">
      <path id="Path_84" data-name="Path 84" d="M336.565,236.943a11,11,0,0,1-1.251-.432,4.05,4.05,0,0,1,1.656-7.688,14.992,14.992,0,0,1,2.065.028,3.879,3.879,0,0,1,3.064,2.178c.068.124.126.254.186.374a4.149,4.149,0,0,0,3.191-4.322,14.562,14.562,0,0,1-1.868.11,3.956,3.956,0,0,1-3.6-3.578c-.067-.916-.042-1.839-.043-2.759,0-3.71.023-7.421-.012-11.132a4.191,4.191,0,0,1,2.515-4.19.434.434,0,0,0,.176-.355,11.158,11.158,0,0,0-22.06-.662c-.006.028-.014.056-.019.084-.139.775-.135.769.537,1.167a3.883,3.883,0,0,1,2.063,3.5c.014,4.631.035,9.262,0,13.893a4.049,4.049,0,0,1-7.907,1.255,4.077,4.077,0,0,1-.194-1.054c-.015-.31-.112-.422-.419-.512a6.653,6.653,0,0,1-4.956-5.156,6.791,6.791,0,0,1,4.978-8.084.428.428,0,0,0,.394-.481,3.955,3.955,0,0,1,2.49-3.577.5.5,0,0,0,.345-.458,13.721,13.721,0,0,1,10.361-11.929c.747-.188,1.519-.278,2.28-.413H332.6a3.609,3.609,0,0,0,.375.076,12.51,12.51,0,0,1,4.332,1.19,13.649,13.649,0,0,1,7.931,11.083.464.464,0,0,0,.306.443,3.926,3.926,0,0,1,2.53,3.588c.016.295.1.4.4.481a6.762,6.762,0,0,1,4.933,4.927c.086.3.145.608.216.913V217a1,1,0,0,0-.073.2,6.616,6.616,0,0,1-3.106,4.788,20.3,20.3,0,0,1-2.349,1.1v.367c0,1.307.016,2.615,0,3.922a6.871,6.871,0,0,1-5.4,6.654.741.741,0,0,0-.43.382,4.152,4.152,0,0,1-2.5,2.343c-.228.077-.465.129-.7.192Zm-15.977-20.738q0-3.344,0-6.687a3.023,3.023,0,0,0-.032-.472,1.437,1.437,0,0,0-1.321-1.21,1.475,1.475,0,0,0-1.6,1.609q-.007,5.285,0,10.57c0,1.021-.007,2.042,0,3.063a1.482,1.482,0,1,0,2.955-.055C320.6,220.75,320.59,218.478,320.588,216.205Zm21.959.024q0,3.3,0,6.6a3.9,3.9,0,0,0,.036.6,1.433,1.433,0,0,0,1.159,1.18,1.487,1.487,0,0,0,1.763-1.6q.008-3.774,0-7.549c0-2.013.005-4.026-.006-6.039a1.482,1.482,0,1,0-2.953.037C342.544,211.715,342.548,213.972,342.548,216.23Zm-27.538,3.995v-7.986a4.195,4.195,0,0,0,0,7.986Zm33.11-7.988v7.989a4.194,4.194,0,0,0,0-7.989ZM337.8,234.352v0c.272,0,.546.018.816,0a1.459,1.459,0,0,0,1.34-1.516,1.429,1.429,0,0,0-1.39-1.416c-.5-.019-1-.019-1.5,0a1.462,1.462,0,0,0-1.436,1.468,1.494,1.494,0,0,0,1.443,1.473C337.313,234.361,337.556,234.352,337.8,234.352Z" transform="translate(-309.518 -192.75)" fill="#f15a24"/>
    </g>
  </g>
</svg>
