<svg xmlns="http://www.w3.org/2000/svg" width="246.74" height="695.544" viewBox="0 0 246.74 695.544">
  <g id="Group_75" data-name="Group 75" transform="translate(-458.149 -262.272)">
    <path id="Path_77" data-name="Path 77" d="M504.884,400.575c8.01-3.355,15.231-6.48,22.533-9.4q12.744-5.1,25.606-9.9c5.9-2.207,11.47-1.83,16.718,2.155,2.806,2.132,6.053,5.1,9.1,5.094,2.933-.006,5.847-3.372,8.795-5.216,7.287-4.554,8.562-4.851,13.97,1.838,5.278,6.529,9.437,13.968,13.947,21.1a3.516,3.516,0,0,1-.07,3.114c-3.706,5.608-7.439,11.214-11.455,16.6-4.479,6-9.765,11.261-16.666,14.459-6.131,2.841-12.426,4.467-19.1,1.345a7.04,7.04,0,0,0-4.377.006c-8.353,2.2-16.393,1.083-23.291-3.764a110.081,110.081,0,0,1-16.933-14.854C517.12,416.151,511.361,408.437,504.884,400.575ZM593,410.485c-6.218-2.1-12.01-4.127-17.854-5.974a8.316,8.316,0,0,0-4.069-.163c-7.107,1.513-14.182,3.175-21.252,4.781C562.764,416.781,573.639,417.165,593,410.485Z" transform="translate(89.006 224.068)" fill="#f15a24"/>
    <path id="Path_78" data-name="Path 78" d="M477.324,957.815c-11.853-15.2-20.793-31.482-18.928-51.624,1.121-12.112,5.246-23.291,10.715-34,6.918-13.549,13.762-27.108,17.895-41.854,6.584-23.486,6.631-47.218,3.163-71.151-3.439-23.732-10.108-46.71-15.986-69.879-4.331-17.067-7.258-34.313-5.96-52.028,1.243-16.936,6.015-33.047,11.4-49.033,6.332-18.8,12.844-37.552,18.58-56.536,7.514-24.851,8.391-50.189,4.607-75.871a302.919,302.919,0,0,1-3.236-37.093c-.735-31.639,14.049-54.433,41.74-68.856,13.988-7.287,28.76-13.073,42.681-20.474a281.248,281.248,0,0,0,31.76-19.971c5.359-3.846,9.55-9.416,13.921-14.505,2.274-3.247,5.147-9.57,5.2-15.2.052-6.018.011-12.039.011-17.473a45.171,45.171,0,0,1,.915,25.15c-2.628,10.532-8.882,18.8-16.764,25.94-12.019,10.889-26.23,18.292-40.651,25.339-11.368,5.553-22.873,10.837-34.081,16.692-16.164,8.446-28.769,20.331-34.723,38.171-3.976,11.905-4.58,24.154-3.378,36.5,1.3,13.4,3.07,26.762,4.421,40.16,2.463,24.441-1.229,48.209-8.635,71.433-5.533,17.351-11.133,34.708-17.526,51.755-12.065,32.176-12.693,64.421-3.576,97.431,5.771,20.892,10.7,42.08,14.705,63.378C503.255,795,498.309,834.2,476.74,870.2c-16.564,27.651-15.039,55.092-1.653,83.051C475.82,954.78,476.578,956.3,477.324,957.815Z" transform="translate(0 0)" fill="#333"/>
    <path id="Path_83" data-name="Path 83" d="M475.1,877.071c-10.477-13.435-18.379-27.827-16.731-45.631.991-10.706,4.637-20.587,9.471-30.053,6.115-11.976,12.164-23.961,15.817-36.995,5.82-20.759,5.861-41.737,2.8-62.891-3.04-20.977-8.934-41.287-14.13-61.767-3.828-15.085-6.416-30.33-5.268-45.988,1.1-14.97,5.317-29.211,10.077-43.341,5.6-16.618,11.353-33.193,16.423-49.972,6.642-21.966,7.417-44.363,4.072-67.063a267.738,267.738,0,0,1-2.86-32.787c-.65-27.966,12.418-48.114,36.895-60.863,12.364-6.441,25.421-11.555,37.727-18.1a248.567,248.567,0,0,0,28.073-17.653c4.737-3.4,8.441-8.323,12.305-12.821,2.01-2.87,4.549-8.459,4.593-13.432.046-5.319.01-10.641.01-15.445a39.926,39.926,0,0,1,.809,22.23c-2.323,9.309-7.851,16.616-14.818,22.929-10.624,9.625-23.185,16.169-35.932,22.4-10.049,4.909-20.218,9.579-30.125,14.754-14.287,7.466-25.429,17.971-30.692,33.739-3.515,10.523-4.049,21.35-2.986,32.266,1.15,11.848,2.714,23.655,3.907,35.5,2.177,21.6-1.086,42.612-7.633,63.14-4.891,15.337-9.841,30.679-15.491,45.746-10.665,28.441-11.219,56.943-3.16,86.12,5.1,18.467,9.458,37.2,13,56.021,6.775,36.042,2.4,70.691-16.662,102.515-14.641,24.441-13.293,48.7-1.461,73.409C473.768,874.388,474.438,875.728,475.1,877.071Z" transform="translate(0 0)" fill="#333"/>
    <path id="Path_79" data-name="Path 79" d="M475.338,333.978a50.622,50.622,0,0,1,4.037-3.6c14.055-10.137,29.26-17.685,46.806-19.027a63.566,63.566,0,0,1,17.619,1.077,170.667,170.667,0,0,1,44.738,16.076c4.072,2.138,7.685,4.813,9.59,9.233,1.243,2.893,1.966,5.85-.218,8.559-2.275,2.823-5.536,3.122-8.592,1.987a123.028,123.028,0,0,1-14.3-6.3c-8.525-4.479-16.924-9.2-25.292-13.976-13.079-7.465-26.741-8.743-40.962-4.037-9.361,3.1-18.647,6.41-27.976,9.6-1.6.549-3.253.958-4.879,1.432Z" transform="translate(32.736 93.109)" fill="#333"/>
    <path id="Path_80" data-name="Path 80" d="M678.878,465.094c-11.223,12.12-23.512,22.78-40.947,24.743-13.07,1.472-25.676-.729-38.023-4.9-22.478-7.592-42.562-19.66-61.369-33.788-19.768-14.851-39-30.422-58.461-45.676-3.93-3.079-7.889-6.12-11.812-9.207-1.7-1.342-3.1-2.835-1.586-5.649,2.033,1.542,3.965,2.939,5.823,4.426,25.04,20.026,50.5,39.481,77.808,56.37,19.684,12.176,39.881,23.343,62.24,29.96,10.3,3.05,20.854,5.365,31.569,3.172a52.564,52.564,0,0,0,15.716-6.07C666.508,474.569,672.561,469.605,678.878,465.094Z" transform="translate(15.01 244.426)" fill="#333"/>
    <path id="Path_81" data-name="Path 81" d="M534.807,350.146,519.468,371.1c3.648-8.22,6.852-15.437,10.058-22.658l-.81-.386-18.609,13.831-.259-.4q7.071-8.038,14.139-16.076l-.691-.61-24.29,10.584-.07-.241,19.018-12.829-.453-.7q-12.282,4.183-24.569,8.368l-.064-.346,19.658-11.955-.7-1.446-21.548,8.774-.131-.389,15.339-9.652-.386-.633-18.522,7.319-.247-.555,13.07-7.961-.308-.717L479.244,335.9c6.355-2.7,12.565-5.405,18.85-7.923a4.182,4.182,0,0,1,3.212.418c6.149,3.7,12.4,7.273,18.26,11.4,10.764,7.581,22.353,10.409,35.292,7.514,4.755-1.066,9.57-1.856,14.357-2.771.456-.087.915-.166,1.368-.27,6.718-1.563,12.294-1.336,15.359,6.585,1.4,3.613,4.848,6.43,7.07,10.041l-14.4-12.3-.7.174,6.024,16.12-.424.212-10.078-16.553-.883.3,6.887,18.507-.314.224q-6.739-10.412-13.477-20.828l-.607.061c.895,3.639,1.56,7.351,2.739,10.895,1.194,3.59,2.9,7.009,3.75,10.9l-13-19.649-.761.2c2.533,7.247,5.065,14.49,7.929,22.684-4.525-7.438-8.589-14.119-13.224-21.74v25.034l-.363.139c-1.809-6.933-3.619-13.869-5.594-21.432-1.754,6.593-3.366,12.649-4.978,18.7l-.293-.084,1.357-20.938-.8-.119-7.749,24.3c.4-7.769.8-15.257,1.144-22.748A15.764,15.764,0,0,0,534.807,350.146Z" transform="translate(40.175 124.824)" fill="#333"/>
    <path id="Path_82" data-name="Path 82" d="M548.317,375.013c-9.207-1.5-17.8-2.051-26.326.546-.81.247-2.5-.145-2.71-.671a3.9,3.9,0,0,1,.436-3.081,8.5,8.5,0,0,1,2.8-2.51C529.054,365.356,543.112,368.257,548.317,375.013Z" transform="translate(116.125 200.434)" fill="#333"/>
  </g>
</svg>
